<svg
  xmlns="http://www.w3.org/2000/svg"
  viewBox="10 20 150 150"
  width="150"
  height="150"
  preserveAspectRatio="xMidYMid meet"
  style="
                  width: 100%;
                  height: 100%;
                  transform: translate3d(0px, 0px, 0px);
                "
>
  <defs>
    <clipPath id="__lottie_element_29">
      <rect width="150" height="150" x="0" y="0"></rect>
    </clipPath>
  </defs>
  <g clip-path="url(#__lottie_element_29)">
    <g
      class="corazonIzquierda"
      style="display: none"
      transform="matrix(1,0,0,1,46.891048431396484,26.62531089782715)"
      opacity="0.007033050847423823"
    >
      <g
        opacity="1"
        transform="matrix(1,0,0,1,15.862000465393066,18.20599937438965)"
      >
        <path
          stroke-linecap="butt"
          stroke-linejoin="miter"
          fill-opacity="0"
          stroke-miterlimit="10"
          stroke="rgb(155,155,155)"
          stroke-opacity="1"
          stroke-width="1.69"
          d=" M5.723999977111816,13.821000099182129 C5.0320000648498535,13.980999946594238 4.348999977111816,13.571000099182129 3.8429999351501465,13.267999649047852 C3.746000051498413,13.208999633789062 3.6540000438690186,13.154000282287598 3.5880000591278076,13.119999885559082 C1.1929999589920044,11.869000434875488 -0.9959999918937683,10.317999839782715 -2.9170000553131104,8.51099967956543 C-3.372999906539917,8.081999778747559 -3.819999933242798,7.631999969482422 -4.247000217437744,7.172999858856201 C-7.150000095367432,4.053999900817871 -9.331000328063965,0.3230000138282776 -10.729000091552734,-3.9159998893737793 C-11.215999603271484,-5.392000198364258 -11.63700008392334,-6.964000225067139 -10.984000205993652,-8.532999992370605 C-10.770000457763672,-9.045000076293945 -10.244999885559082,-9.968999862670898 -9.12399959564209,-10.395999908447266 C-7.9720001220703125,-10.833999633789062 -6.633999824523926,-10.58899974822998 -5.252999782562256,-9.685999870300293 C-2.2239999771118164,-7.705999851226807 -0.42800000309944153,-4.798999786376953 0.972000002861023,-1.7589999437332153 C1.1929999589920044,-4.679999828338623 1.7610000371932983,-7.297999858856201 2.690000057220459,-9.704000473022461 C3.0209999084472656,-10.557000160217285 3.4240000247955322,-11.456000328063965 4.142000198364258,-12.244999885559082 C4.9730000495910645,-13.157999992370605 6.098999977111816,-13.744000434875488 7.230000019073486,-13.85200023651123 C8.588000297546387,-13.980999946594238 10.378000259399414,-13.345000267028809 11.100000381469727,-11.642999649047852 C11.63700008392334,-10.37399959564209 11.4350004196167,-8.961999893188477 11.20199966430664,-7.738999843597412 C10.869000434875488,-5.986000061035156 10.404000282287598,-4.21999979019165 9.954000473022461,-2.51200008392334 C9.50100040435791,-0.7910000085830688 9.032999992370605,0.9869999885559082 8.704000473022461,2.73799991607666 C8.505000114440918,3.802999973297119 8.354000091552734,4.892000198364258 8.208000183105469,5.945000171661377 C8.135000228881836,6.478000164031982 8.057999610900879,7.03000020980835 7.97599983215332,7.572999954223633 C7.785999774932861,8.835000038146973 7.5329999923706055,10.321999549865723 7.103000164031982,11.795000076293945 C7.083000183105469,11.861000061035156 7.064000129699707,11.942000389099121 7.043000221252441,12.031000137329102 C6.9019999504089355,12.621999740600586 6.690000057220459,13.513999938964844 5.836999893188477,13.789999961853027 C5.798999786376953,13.802000045776367 5.76200008392334,13.812999725341797 5.723999977111816,13.821000099182129z M5.521999835968018,12.897000312805176 C5.521999835968018,12.897000312805176 5.521999835968018,12.897000312805176 5.521999835968018,12.897000312805176z"
        ></path>
      </g>
    </g>
    <g
      class="corazonDerecha"
      style="display: block"
      transform="matrix(1,0,0,1,72.37254333496094,45.55696487426758)"
      opacity="0.13179838709678418"
    >
      <g
        opacity="1"
        transform="matrix(1,0,0,1,12.479000091552734,14.140999794006348)"
      >
        <path
          stroke-linecap="butt"
          stroke-linejoin="miter"
          fill-opacity="0"
          stroke-miterlimit="10"
          stroke="rgb(0,0,0)"
          stroke-opacity="1"
          stroke-width="1.69"
          d=" M-4.139999866485596,9.779000282287598 C-4.744999885559082,9.583000183105469 -4.895999908447266,8.951000213623047 -4.994999885559082,8.531999588012695 C-5.011000156402588,8.468999862670898 -5.021999835968018,8.411999702453613 -5.035999774932861,8.364999771118164 C-5.3420000076293945,7.320000171661377 -5.521999835968018,6.264999866485596 -5.6570000648498535,5.370999813079834 C-5.715000152587891,4.985000133514404 -5.769999980926514,4.593999862670898 -5.821000099182129,4.216000080108643 C-5.925000190734863,3.4690001010894775 -6.0320000648498535,2.696000099182129 -6.173999786376953,1.940999984741211 C-6.406000137329102,0.699999988079071 -6.738999843597412,-0.5619999766349792 -7.059999942779541,-1.781999945640564 C-7.379000186920166,-2.993000030517578 -7.709000110626221,-4.245999813079834 -7.945000171661377,-5.488999843597412 C-8.109000205993652,-6.35699987411499 -8.253999710083008,-7.357999801635742 -7.872000217437744,-8.258000373840332 C-7.360000133514404,-9.46500015258789 -6.091000080108643,-9.916000366210938 -5.127999782562256,-9.824999809265137 C-4.324999809265137,-9.74899959564209 -3.5269999504089355,-9.333000183105469 -2.937999963760376,-8.6850004196167 C-2.428999900817871,-8.125 -2.1429998874664307,-7.48799991607666 -1.9079999923706055,-6.882999897003174 C-1.2489999532699585,-5.176000118255615 -0.847000002861023,-3.319999933242798 -0.6890000104904175,-1.2489999532699585 C0.30399999022483826,-3.4040000438690186 1.5779999494552612,-5.465000152587891 3.7269999980926514,-6.870999813079834 C4.705999851226807,-7.511000156402588 5.6539998054504395,-7.684999942779541 6.4710001945495605,-7.374000072479248 C7.265999794006348,-7.071000099182129 7.638999938964844,-6.415999889373779 7.789999961853027,-6.052999973297119 C8.253000259399414,-4.939000129699707 7.954999923706055,-3.825000047683716 7.609000205993652,-2.7780001163482666 C6.617000102996826,0.2280000001192093 5.070000171661377,2.875 3.01200008392334,5.086999893188477 C2.7090001106262207,5.4120001792907715 2.3919999599456787,5.730999946594238 2.068000078201294,6.035999774932861 C0.7059999704360962,7.316999912261963 -0.8460000157356262,8.416999816894531 -2.5450000762939453,9.303999900817871 C-2.5920000076293945,9.329000473022461 -2.6570000648498535,9.368000030517578 -2.7260000705718994,9.409000396728516 C-3.0850000381469727,9.625 -3.569000005722046,9.916000366210938 -4.059999942779541,9.802000045776367 C-4.085999965667725,9.795000076293945 -4.11299991607666,9.788000106811523 -4.139999866485596,9.779000282287598z M-3.9170000553131104,9.145999908447266 C-3.9170000553131104,9.145999908447266 -3.9149999618530273,9.145999908447266 -3.9149999618530273,9.145999908447266 C-3.9149999618530273,9.145999908447266 -3.9170000553131104,9.145999908447266 -3.9170000553131104,9.145999908447266z"
        ></path>
      </g>
    </g>
    <g
      class="anilloIzquierda"
      transform="matrix(1,0,0,1,15.706382751464844,58.11800003051758)"
      opacity="1"
      style="display: block"
    >
      <g
        opacity="1"
        transform="matrix(1,0,0,1,39.720001220703125,40.4640007019043)"
      >
        <path
          stroke-linecap="butt"
          stroke-linejoin="miter"
          fill-opacity="0"
          stroke-miterlimit="10"
          stroke="rgb(155,155,155)"
          stroke-opacity="1"
          stroke-width="3.437"
          d=" M31.128000259399414,0 C31.128000259399414,17.60300064086914 17.191999435424805,31.871999740600586 0,31.871999740600586 C-17.19099998474121,31.871999740600586 -31.128000259399414,17.60300064086914 -31.128000259399414,0 C-31.128000259399414,-17.601999282836914 -17.19099998474121,-31.871999740600586 0,-31.871999740600586 C17.191999435424805,-31.871999740600586 31.128000259399414,-17.601999282836914 31.128000259399414,0z"
        ></path>
      </g>
    </g>
    <g
      class="anilloDerecha"
      transform="matrix(1,0,0,1,62.051231384277344,63.209999084472656)"
      opacity="1"
      style="display: block"
    >
      <g
        opacity="1"
        transform="matrix(1,0,0,1,37.23400115966797,37.917999267578125)"
      >
        <path
          stroke-linecap="butt"
          stroke-linejoin="miter"
          fill-opacity="0"
          stroke-miterlimit="10"
          stroke="rgb(155,155,155)"
          stroke-opacity="1"
          stroke-width="3.437"
          d=" M28.642000198364258,0 C28.642000198364258,16.195999145507812 15.817999839782715,29.326000213623047 -0.0010000000474974513,29.326000213623047 C-15.819000244140625,29.326000213623047 -28.641000747680664,16.195999145507812 -28.641000747680664,0 C-28.641000747680664,-16.195999145507812 -15.819000244140625,-29.326000213623047 -0.0010000000474974513,-29.326000213623047 C15.817999839782715,-29.326000213623047 28.642000198364258,-16.195999145507812 28.642000198364258,0z"
        ></path>
      </g>
    </g>
  </g>
</svg>