<svg xmlns="http://www.w3.org/2000/svg" viewBox="0 0 111 121" width="111" height="121"
    preserveAspectRatio="xMidYMid meet"
    style="
    width: 100%;
    height: 100%;
    transform: translate3d(0px, 0px, 0px);
  ">
    <defs>
        <clipPath id="__lottie_element_56">
            <rect width="111" height="121" x="0" y="0"></rect>
        </clipPath>
    </defs>
    <g clip-path="url(#__lottie_element_56)">
        <g class="flashContorno" transform="matrix(1,0,0,1,0,0)" opacity="1" style="display: block">
            <g opacity="1" transform="matrix(1,0,0,1,69.58100128173828,37.60599899291992)">
                <path stroke-linecap="round" stroke-linejoin="miter" fill-opacity="0"
                    stroke-miterlimit="10"
                    stroke="rgb(0,0,0)" stroke-opacity="1" stroke-width="3.681"
                    d=" M7.617000102996826,11.065999984741211 C7.617000102996826,11.065999984741211 -7.618000030517578,11.065999984741211 -7.618000030517578,11.065999984741211 C-9.434000015258789,11.065999984741211 -10.904999732971191,9.593999862670898 -10.904999732971191,7.7779998779296875 C-10.904999732971191,7.7779998779296875 -10.904999732971191,-7.7769999504089355 -10.904999732971191,-7.7769999504089355 C-10.904999732971191,-9.593000411987305 -9.434000015258789,-11.065999984741211 -7.618000030517578,-11.065999984741211 C-7.618000030517578,-11.065999984741211 7.617000102996826,-11.065999984741211 7.617000102996826,-11.065999984741211 C9.432999610900879,-11.065999984741211 10.904999732971191,-9.593000411987305 10.904999732971191,-7.7769999504089355 C10.904999732971191,-7.7769999504089355 10.904999732971191,7.7779998779296875 10.904999732971191,7.7779998779296875 C10.904999732971191,9.593999862670898 9.432999610900879,11.065999984741211 7.617000102996826,11.065999984741211z">
                </path>
            </g>
        </g>
        <g class="camara" transform="matrix(1,0,0,1,0,0)" opacity="1" style="display: block">
            <g opacity="1" transform="matrix(1,0,0,1,45.99800109863281,67.86699676513672)">
                <path stroke-linecap="round" stroke-linejoin="miter" fill-opacity="0"
                    stroke-miterlimit="10"
                    stroke="rgb(0,0,0)" stroke-opacity="1" stroke-width="3.681"
                    d=" M36.66899871826172,-5.685999870300293 C36.66899871826172,-5.685999870300293 36.66899871826172,-11.456999778747559 36.66899871826172,-11.456999778747559 C39.69200134277344,-11.531000137329102 42.12200164794922,-13.99899959564209 42.12200164794922,-17.040000915527344 C42.12200164794922,-17.040000915527344 42.12200164794922,-43.48500061035156 42.12200164794922,-43.48500061035156 C42.12200164794922,-46.57099914550781 39.61899948120117,-49.07400131225586 36.53300094604492,-49.07400131225586 C36.53300094604492,-49.07400131225586 10.633000373840332,-49.07400131225586 10.633000373840332,-49.07400131225586 C7.546000003814697,-49.07400131225586 5.044000148773193,-46.57099914550781 5.044000148773193,-43.48500061035156 C5.044000148773193,-43.48500061035156 5.044000148773193,-17.040000915527344 5.044000148773193,-17.040000915527344 C5.044000148773193,-13.95300006866455 7.546000003814697,-11.451000213623047 10.633000373840332,-11.451000213623047 C10.633000373840332,-11.451000213623047 11.859000205993652,-11.451000213623047 11.859000205993652,-11.451000213623047 C11.859000205993652,-11.451000213623047 11.859000205993652,-5.72599983215332 11.859000205993652,-5.72599983215332 C11.859000205993652,-5.72599983215332 -35.93199920654297,-5.72599983215332 -35.93199920654297,-5.72599983215332 C-39.803001403808594,-5.72599983215332 -42.93899917602539,-2.5869998931884766 -42.93899917602539,1.2829999923706055 C-42.93899917602539,1.2829999923706055 -42.93899917602539,42.064998626708984 -42.93899917602539,42.064998626708984 C-42.93899917602539,45.93600082397461 -39.803001403808594,49.07400131225586 -35.93199920654297,49.07400131225586 C-35.93199920654297,49.07400131225586 35.93199920654297,49.07400131225586 35.93199920654297,49.07400131225586 C39.801998138427734,49.07400131225586 42.93899917602539,45.93600082397461 42.93899917602539,42.064998626708984 C42.93899917602539,42.064998626708984 42.93899917602539,1.2829999923706055 42.93899917602539,1.2829999923706055 C42.93899917602539,-2.3380000591278076 40.19200134277344,-5.316999912261963 36.66899871826172,-5.685999870300293z">
                </path>
            </g>
            <g opacity="1" transform="matrix(1,0,0,1,45.99800109863281,88.7239990234375)">
                <path stroke-linecap="round" stroke-linejoin="miter" fill-opacity="0"
                    stroke-miterlimit="10"
                    stroke="rgb(0,0,0)" stroke-opacity="1" stroke-width="3.681"
                    d=" M17.584999084472656,0.0010000000474974513 C17.584999084472656,9.711999893188477 9.711000442504883,17.584999084472656 -0.0010000000474974513,17.584999084472656 C-9.711999893188477,17.584999084472656 -17.584999084472656,9.711999893188477 -17.584999084472656,0.0010000000474974513 C-17.584999084472656,-9.711000442504883 -9.711999893188477,-17.584999084472656 -0.0010000000474974513,-17.584999084472656 C9.711000442504883,-17.584999084472656 17.584999084472656,-9.711000442504883 17.584999084472656,0.0010000000474974513z">
                </path>
            </g>
        </g>
        <g class="lente" transform="matrix(0,0,0,0,46.39699935913086,88.28099822998047)" opacity="1"
            style="display: block">
            <g opacity="1" transform="matrix(1,0,0,1,45.99800109863281,88.7239990234375)">
                <path fill="rgb(0,0,0)" fill-opacity="1"
                    d=" M17.584999084472656,0.0010000000474974513 C17.584999084472656,9.711999893188477 9.711000442504883,17.584999084472656 -0.0010000000474974513,17.584999084472656 C-9.711999893188477,17.584999084472656 -17.584999084472656,9.711999893188477 -17.584999084472656,0.0010000000474974513 C-17.584999084472656,-9.711000442504883 -9.711999893188477,-17.584999084472656 -0.0010000000474974513,-17.584999084472656 C9.711000442504883,-17.584999084472656 17.584999084472656,-9.711000442504883 17.584999084472656,0.0010000000474974513z">
                </path>
            </g>
        </g>
        <g class="flashLineas" style="display: block" transform="matrix(1,0,0,1,0,0)"
            opacity="0.46532708333355366">
            <g opacity="1" transform="matrix(1,0,0,1,38.15999984741211,16.53499984741211)">
                <path stroke-linecap="round" stroke-linejoin="miter" fill-opacity="0"
                    stroke-miterlimit="10"
                    stroke="rgb(0,0,0)" stroke-opacity="1" stroke-width="3.681"
                    d=" M-4.390999794006348,-3.194000005722046 C-4.390999794006348,-3.194000005722046 4.390999794006348,3.194000005722046 4.390999794006348,3.194000005722046">
                </path>
            </g>
            <g opacity="1" transform="matrix(1,0,0,1,38.15999984741211,42.29899978637695)">
                <path stroke-linecap="round" stroke-linejoin="miter" fill-opacity="0"
                    stroke-miterlimit="10"
                    stroke="rgb(0,0,0)" stroke-opacity="1" stroke-width="3.681"
                    d=" M-4.390999794006348,3.194000005722046 C-4.390999794006348,3.194000005722046 4.390999794006348,-3.194000005722046 4.390999794006348,-3.194000005722046">
                </path>
            </g>
            <g opacity="1" transform="matrix(1,0,0,1,0,0)">
                <path stroke-linecap="round" stroke-linejoin="miter" fill-opacity="0"
                    stroke-miterlimit="10"
                    stroke="rgb(0,0,0)" stroke-opacity="1" stroke-width="3.681"
                    d=" M30.224000930786133,29.426000595092773 C30.224000930786133,29.426000595092773 39.76599884033203,29.426000595092773 39.76599884033203,29.426000595092773">
                </path>
            </g>
            <g opacity="1" transform="matrix(1,0,0,1,99.36000061035156,16.53499984741211)">
                <path stroke-linecap="round" stroke-linejoin="miter" fill-opacity="0"
                    stroke-miterlimit="10"
                    stroke="rgb(0,0,0)" stroke-opacity="1" stroke-width="3.681"
                    d=" M4.390999794006348,-3.194000005722046 C4.390999794006348,-3.194000005722046 -4.390999794006348,3.194000005722046 -4.390999794006348,3.194000005722046">
                </path>
            </g>
            <g opacity="1" transform="matrix(1,0,0,1,99.36000061035156,42.29899978637695)">
                <path stroke-linecap="round" stroke-linejoin="miter" fill-opacity="0"
                    stroke-miterlimit="10"
                    stroke="rgb(0,0,0)" stroke-opacity="1" stroke-width="3.681"
                    d=" M4.390999794006348,3.194000005722046 C4.390999794006348,3.194000005722046 -4.390999794006348,-3.194000005722046 -4.390999794006348,-3.194000005722046">
                </path>
            </g>
            <g opacity="1" transform="matrix(1,0,0,1,0,0)">
                <path stroke-linecap="round" stroke-linejoin="miter" fill-opacity="0"
                    stroke-miterlimit="10"
                    stroke="rgb(0,0,0)" stroke-opacity="1" stroke-width="3.681"
                    d=" M107.29499816894531,29.426000595092773 C107.29499816894531,29.426000595092773 97.75299835205078,29.426000595092773 97.75299835205078,29.426000595092773">
                </path>
            </g>
        </g>
        <g class="flash" style="display: block" transform="matrix(1,0,0,1,0,0)"
            opacity="0.19876346153866492">
            <g opacity="1" transform="matrix(1,0,0,1,69.58100128173828,37.60599899291992)">
                <path fill="rgb(0,0,0)" fill-opacity="1"
                    d=" M7.617000102996826,11.065999984741211 C7.617000102996826,11.065999984741211 -7.618000030517578,11.065999984741211 -7.618000030517578,11.065999984741211 C-9.434000015258789,11.065999984741211 -10.904999732971191,9.593999862670898 -10.904999732971191,7.7779998779296875 C-10.904999732971191,7.7779998779296875 -10.904999732971191,-7.7769999504089355 -10.904999732971191,-7.7769999504089355 C-10.904999732971191,-9.593000411987305 -9.434000015258789,-11.065999984741211 -7.618000030517578,-11.065999984741211 C-7.618000030517578,-11.065999984741211 7.617000102996826,-11.065999984741211 7.617000102996826,-11.065999984741211 C9.432999610900879,-11.065999984741211 10.904999732971191,-9.593000411987305 10.904999732971191,-7.7769999504089355 C10.904999732971191,-7.7769999504089355 10.904999732971191,7.7779998779296875 10.904999732971191,7.7779998779296875 C10.904999732971191,9.593999862670898 9.432999610900879,11.065999984741211 7.617000102996826,11.065999984741211z">
                </path>
            </g>
        </g>
    </g>
</svg>