<svg
    xmlns="http://www.w3.org/2000/svg"
    viewBox="0 0 50 50"
    width="50"
    height="50"
    preserveAspectRatio="xMidYMid meet"
    style="
  width: 100%;
  height: 100%;
  transform: translate3d(0px, 0px, 0px);
"
>
    <defs>
        <clipPath id="__lottie_element_25">
            <rect width="50" height="50" x="0" y="0"></rect>
        </clipPath>
        <filter
            id="__lottie_element_33"
            filterUnits="objectBoundingBox"
            x="0%"
            y="0%"
            width="100%"
            height="100%"
        >
            <feComponentTransfer in="SourceGraphic">
                <feFuncA type="table" tableValues="1.0 0.0"></feFuncA>
            </feComponentTransfer>
        </filter>
        <mask id="__lottie_element_32" mask-type="alpha">
            <g filter="url(#__lottie_element_33)">
                <rect
                    width="50"
                    height="50"
                    x="0"
                    y="0"
                    fill="#ffffff"
                    opacity="0"
                ></rect>
                <g
                    class="circulo02"
                    transform="matrix(1,0,0,1,102.25,-210.43701171875)"
                    opacity="1"
                    style="display: block"
                >
                    <g
                        opacity="1"
                        transform="matrix(1,0,0,1,-76.96900177001953,235.031005859375)"
                    >
                        <path
                            fill="rgb(114,22,12)"
                            fill-opacity="1"
                            d=" M0,-15 C8.278499603271484,-15 15,-8.278499603271484 15,0 C15,8.278499603271484 8.278499603271484,15 0,15 C-8.278499603271484,15 -15,8.278499603271484 -15,0 C-15,-8.278499603271484 -8.278499603271484,-15 0,-15z"
                        ></path>
                    </g>
                </g>
            </g>
        </mask>
    </defs>
    <g clip-path="url(#__lottie_element_25)">
        <g mask="url(#__lottie_element_32)" style="display: block">
            <g
                class="circulo03"
                transform="matrix(0.11115935444831848,0,0,0.11115935444831848,33.43833541870117,-2.0769710540771484)"
                opacity="1"
            >
                <g
                    opacity="1"
                    transform="matrix(1,0,0,1,-76.01100158691406,241.23899841308594)"
                >
                    <path
                        fill="rgb(114,22,12)"
                        fill-opacity="1"
                        d=" M0,-18.73900032043457 C10.34205436706543,-18.73900032043457 18.73900032043457,-10.34205436706543 18.73900032043457,0 C18.73900032043457,10.34205436706543 10.34205436706543,18.73900032043457 0,18.73900032043457 C-10.34205436706543,18.73900032043457 -18.73900032043457,10.34205436706543 -18.73900032043457,0 C-18.73900032043457,-10.34205436706543 -10.34205436706543,-18.73900032043457 0,-18.73900032043457z"
                    ></path>
                </g>
            </g>
        </g>
        <g
            class="circulo01"
            transform="matrix(1,0,0,1,102.25,-210.43701171875)"
            opacity="0.2"
            style="display: block"
        >
            <g
                opacity="1"
                transform="matrix(1,0,0,1,-76.96900177001953,235.031005859375)"
            >
                <path
                    fill="rgb(114,22,12)"
                    fill-opacity="1"
                    d=" M0,-15 C8.278499603271484,-15 15,-8.278499603271484 15,0 C15,8.278499603271484 8.278499603271484,15 0,15 C-8.278499603271484,15 -15,8.278499603271484 -15,0 C-15,-8.278499603271484 -8.278499603271484,-15 0,-15z"
                ></path>
            </g>
        </g>
        <g
            class="nota"
            transform="matrix(1,0,0,1,18,18)"
            opacity="1"
            style="display: block"
        >
            <g opacity="1" transform="matrix(1,0,0,1,6,6.631999969482422)">
                <path
                    fill="rgb(130,22,12)"
                    fill-opacity="1"
                    d=" M6,-6.175000190734863 C6,-6.328999996185303 5.923999786376953,-6.4679999351501465 5.816999912261963,-6.545000076293945 C5.696000099182129,-6.63700008392334 5.544000148773193,-6.6529998779296875 5.4070000648498535,-6.60699987411499 C5.4070000648498535,-6.60699987411499 -2.0480000972747803,-4.923999786376953 -2.0480000972747803,-4.923999786376953 C-2.2309999465942383,-4.86299991607666 -2.3529999256134033,-4.677000045776367 -2.3529999256134033,-4.492000102996826 C-2.3529999256134033,-4.492000102996826 -2.3529999256134033,2.4660000801086426 -2.3529999256134033,2.4660000801086426 C-2.7320001125335693,2.1730000972747803 -3.2039999961853027,2.003000020980835 -3.7200000286102295,2.003000020980835 C-4.98199987411499,2.003000020980835 -6,3.0369999408721924 -6,4.316999912261963 C-6,5.5970001220703125 -4.98199987411499,6.631999969482422 -3.7200000286102295,6.631999969482422 C-2.503999948501587,6.631999969482422 -1.5010000467300415,5.64300012588501 -1.4559999704360962,4.409999847412109 C-1.4559999704360962,4.409999847412109 -1.4559999704360962,4.3470001220703125 -1.4559999704360962,4.3470001220703125 C-1.4559999704360962,4.3470001220703125 -1.4559999704360962,-2.7330000400543213 -1.4559999704360962,-2.7330000400543213 C-1.4559999704360962,-2.7330000400543213 5.0879998207092285,-4.10699987411499 5.0879998207092285,-4.10699987411499 C5.0879998207092285,-4.10699987411499 5.0879998207092285,1.0140000581741333 5.0879998207092285,1.0140000581741333 C4.708000183105469,0.7210000157356262 4.236999988555908,0.5519999861717224 3.7209999561309814,0.5519999861717224 C2.4590001106262207,0.5519999861717224 1.440000057220459,1.5859999656677246 1.440000057220459,2.865999937057495 C1.440000057220459,4.145999908447266 2.4590001106262207,5.179999828338623 3.7209999561309814,5.179999828338623 C4.936999797821045,5.179999828338623 5.939000129699707,4.191999912261963 5.984000205993652,2.9590001106262207 C5.984000205993652,2.9590001106262207 5.984000205993652,2.8959999084472656 5.984000205993652,2.8959999084472656 C5.984000205993652,2.8959999084472656 5.984000205993652,-6.175000190734863 5.984000205993652,-6.175000190734863 C5.984000205993652,-6.175000190734863 6,-6.175000190734863 6,-6.175000190734863z"
                ></path>
            </g>
        </g>
    </g>
</svg>