<svg xmlns="http://www.w3.org/2000/svg" viewBox="0 0 150 76" width="150" height="76"
  preserveAspectRatio="xMidYMid meet"
  style="width: 100%; height: 100%; transform: translate3d(0px, 0px, 0px);">
  <defs>
    <clipPath id="__lottie_element_88">
      <rect width="150" height="76" x="0" y="0"></rect>
    </clipPath>
  </defs>
  <g clip-path="url(#__lottie_element_88)">
    <g class="lineasDerecha" transform="matrix(1,0,0,1,0,0)" opacity="1" style="display: block;">
      <g opacity="1" transform="matrix(1,0,0,1,100.25499725341797,27.170000076293945)">
        <path stroke-linecap="round" stroke-linejoin="miter" fill-opacity="0" stroke-miterlimit="10"
          stroke="rgb(252,194,144)" stroke-opacity="1" stroke-width="3.141"
          d=" M-11.293000221252441,3.131999969482422 C-11.293000221252441,3.131999969482422 -0.6650000214576721,-2.183000087738037 11.291999816894531,-3.131999969482422"></path>
      </g>
      <g opacity="1" transform="matrix(1,0,0,1,101.54000091552734,48.047000885009766)">
        <path stroke-linecap="round" stroke-linejoin="miter" fill-opacity="0" stroke-miterlimit="10"
          stroke="rgb(252,194,144)" stroke-opacity="1" stroke-width="3.141"
          d=" M-12.524999618530273,-3.322000026702881 C-12.524999618530273,-3.322000026702881 2.6570000648498535,3.321000099182129 12.524999618530273,2.750999927520752"></path>
      </g>
    </g>
    <g class="lineasIzquierda" transform="matrix(1,0,0,1,0,0)" opacity="1" style="display: block;">
      <g opacity="1" transform="matrix(1,0,0,1,49.58300018310547,27.170000076293945)">
        <path stroke-linecap="round" stroke-linejoin="miter" fill-opacity="0" stroke-miterlimit="10"
          stroke="rgb(252,194,144)" stroke-opacity="1" stroke-width="3.141"
          d=" M11.291999816894531,3.131999969482422 C11.291999816894531,3.131999969482422 0.6639999747276306,-2.183000087738037 -11.291999816894531,-3.131999969482422"></path>
      </g>
      <g opacity="1" transform="matrix(1,0,0,1,48.29800033569336,48.047000885009766)">
        <path stroke-linecap="round" stroke-linejoin="miter" fill-opacity="0" stroke-miterlimit="10"
          stroke="rgb(252,194,144)" stroke-opacity="1" stroke-width="3.141"
          d=" M12.524999618530273,-3.322000026702881 C12.524999618530273,-3.322000026702881 -2.6570000648498535,3.321000099182129 -12.524999618530273,2.750999927520752"></path>
      </g>
    </g>
    <g class="lineaDerecha" transform="matrix(1,0,0,1,0,0)" opacity="1" style="display: block;">
      <g opacity="1" transform="matrix(1,0,0,1,89.24700164794922,37.702999114990234)">
        <path stroke-linecap="round" stroke-linejoin="miter" fill-opacity="0" stroke-miterlimit="10"
          stroke="rgb(252,194,144)" stroke-opacity="1" stroke-width="3.141"
          d=" M-2.750999927520752,-15.371999740600586 C-2.750999927520752,-15.371999740600586 3.13100004196167,-1.8980000019073486 -3.131999969482422,15.371999740600586"></path>
      </g>
    </g>
    <g class="lineaIzquierda" transform="matrix(1,0,0,1,0,0)" opacity="1" style="display: block;">
      <g opacity="1" transform="matrix(1,0,0,1,60.685001373291016,37.513999938964844)">
        <path stroke-linecap="round" stroke-linejoin="miter" fill-opacity="0" stroke-miterlimit="10"
          stroke="rgb(252,194,144)" stroke-opacity="1" stroke-width="3.141"
          d=" M2.2769999504089355,-15.562000274658203 C2.2769999504089355,-15.562000274658203 -2.2769999504089355,-3.796999931335449 2.0889999866485596,15.562000274658203"></path>
      </g>
    </g>
    <g class="monio" transform="matrix(1,0,0,1,0,0)" opacity="1" style="display: block;">
      <g opacity="1" transform="matrix(1,0,0,1,74.91899871826172,36.944000244140625)">
        <path stroke-linecap="round" stroke-linejoin="miter" fill-opacity="0" stroke-miterlimit="10"
          stroke="rgb(252,194,144)" stroke-opacity="1" stroke-width="3.141"
          d=" M-10.611000061035156,16.131999969482422 C-10.611000061035156,16.131999969482422 11.196999549865723,16.131999969482422 11.196999549865723,16.131999969482422 C11.196999549865723,16.131999969482422 30.176000595092773,33.78099822998047 52.000999450683594,35.68000030517578 C52.000999450683594,35.68000030517578 68.7020034790039,38.715999603271484 70.5999984741211,26.3799991607666 C70.5999984741211,26.3799991607666 76.86299896240234,-0.5690000057220459 70.03099822998047,-25.809999465942383 C70.03099822998047,-25.809999465942383 67.56400299072266,-40.04399871826172 50.483001708984375,-33.78200149536133 C50.483001708984375,-33.78200149536133 22.58300018310547,-26.759000778198242 11.576000213623047,-14.61299991607666 C11.576000213623047,-14.61299991607666 -11.956000328063965,-14.993000030517578 -11.956000328063965,-14.993000030517578 C-11.956000328063965,-14.993000030517578 -26.950000762939453,-33.402000427246094 -54.27899932861328,-34.72999954223633 C-54.27899932861328,-34.72999954223633 -66.23500061035156,-36.81800079345703 -70.22100067138672,-24.101999282836914 C-70.22100067138672,-24.101999282836914 -76.86299896240234,6.072999954223633 -70.79000091552734,23.913000106811523 C-70.79000091552734,23.913000106811523 -64.90699768066406,40.04399871826172 -53.709999084472656,36.058998107910156 C-53.709999084472656,36.058998107910156 -25.430999755859375,32.263999938964844 -12.145999908447266,16.131999969482422"></path>
      </g>
    </g>
  </g>
</svg>